# xmcd CD database file
#
# Track frame offsets:
#	150
#	26512
#	71792
#	84582
#	109075
#	140650
#	169082
#	186175
#	217152
#	235735
#	257977
#	282632
#	303765
#
# Disc length: 4329 seconds
#
# Revision: 0
# Processed by: cddbd v1.5.1PL0 Copyright (c) Steve Scherf et al.
# Submitted via: CDex 1.51
#
DISCID=c410e70d
DTITLE=The Black Eagles Jazz Band - Some Sweet Day
DYEAR=1981
DGENRE=Jazz
TTITLE0=In The Sweet Bye and Bye
TTITLE1=Careless Love
TTITLE2=Perfect Rag
TTITLE3=Perdido Street Blues
TTITLE4=Ponchartrain Blues
TTITLE5=Metha
TTITLE6=Purple Rose Of Cairo
TTITLE7=Love Song Of The Nile
TTITLE8=Some Sweet Day
TTITLE9=Misty Morning
TTITLE10=Dreaming The Hours Away
TTITLE11=Baby O' Mine
TTITLE12=Lina Blues
EXTD=YEAR: 1981
EXTT0=
EXTT1=
EXTT2=
EXTT3=
EXTT4=
EXTT5=
EXTT6=
EXTT7=
EXTT8=
EXTT9=
EXTT10=
EXTT11=
EXTT12=
PLAYORDER=
